<svg width="40" height="40" viewBox="0 0 40 40" fill="none" xmlns="http://www.w3.org/2000/svg">
<g clip-path="url(#clip0_1_533)">
<path d="M20.8325 0C20.3727 0 20 0.372726 20 0.832468V19.1462C20 19.606 20.3727 19.9787 20.8325 19.9787H39.1462C39.606 19.9787 39.9787 19.606 39.9787 19.1462C39.9667 8.57699 31.4016 0.0119403 20.8325 0Z" fill="#FFCB05"/>
<path d="M29.8146 35.2838L18.3352 20.5263V2.49726C18.3352 2.03752 17.9625 1.66479 17.5028 1.66479C7.86309 1.66479 0.0214844 10.254 0.0214844 20.8109C0.0334247 31.3802 8.59848 39.9452 19.1676 39.9572C23.0052 40.2554 26.7997 38.9856 29.6847 36.4376C30.0333 36.1516 30.0909 35.6401 29.8146 35.2838Z" fill="#FFCB05"/>
<path d="M39.1463 21.6436H22.4975C22.0378 21.6436 21.6651 22.0164 21.6653 22.4762C21.6653 22.6664 21.7305 22.8508 21.8499 22.9987L32.6717 36.396C32.8169 36.5762 33.0304 36.6877 33.2611 36.7041H33.3194C33.53 36.7042 33.7329 36.6245 33.8871 36.481C37.765 32.8544 39.9699 27.7853 39.979 22.4759C39.9788 22.0163 39.6062 21.6436 39.1463 21.6436Z" fill="#FFCB05"/>
</g>
<defs>
<clipPath id="clip0_1_533">
<rect width="40" height="40" fill="white"/>
</clipPath>
</defs>
</svg>
