<svg width="40" height="40" viewBox="0 0 40 40" fill="none" xmlns="http://www.w3.org/2000/svg">
<g clip-path="url(#clip0_1_517)">
<path d="M19.1563 19.1943C19.1628 19.1874 19.1647 19.1783 19.1714 19.1715L25.8592 12.4836V8.28138C25.8592 7.97005 25.9828 7.67255 26.2025 7.45279L33.2338 0.343491C33.5679 0.00942896 34.0726 -0.0924461 34.511 0.0895071C34.9492 0.270288 35.2342 0.698335 35.2342 1.17209V4.68771H38.828C39.3017 4.68763 39.7297 4.97255 39.9105 5.41091C40.0924 5.8492 39.9917 6.35279 39.6564 6.6881L32.547 13.7974C32.3273 14.0172 32.0298 14.1408 31.7185 14.1408H27.5163L20.8285 20.8286C20.8217 20.8353 20.8126 20.8372 20.8057 20.8437C20.3495 21.2792 19.6564 21.285 19.1941 20.8437C18.7072 20.379 18.7181 19.6533 19.1563 19.1943Z" fill="#FFCB05"/>
<path d="M19.9998 0.000244141C22.9983 0.000244141 25.8334 0.763135 28.3864 1.95478L24.7915 5.54962C23.2828 5.0479 21.6747 4.76587 19.9997 4.76587C11.5998 4.76579 4.76549 11.6002 4.76549 20.0001C4.76549 28.4 11.5998 35.2344 19.9998 35.2344C28.3998 35.2344 35.2341 28.4001 35.2341 20.0001C35.2341 18.3251 34.952 16.717 34.4503 15.2083L38.0452 11.6134C39.2367 14.1665 39.9996 17.0016 39.9996 20.0001C39.9996 30.9852 30.9849 40 19.9998 40C9.01471 40 -0.000133514 30.9852 -0.000133514 20.0001C-0.000133514 9.01501 9.01456 0.000244141 19.9998 0.000244141Z" fill="#FFCB05"/>
<path d="M20 9.45312C21.2386 9.45312 22.4105 9.70703 23.5156 10.101V11.513L20.8064 14.2222C20.5403 14.185 20.2761 14.1406 20 14.1406C16.7693 14.1406 14.1406 16.7693 14.1406 20C14.1406 23.2307 16.7693 25.8594 20 25.8594C23.2307 25.8594 25.8593 23.2307 25.8593 20C25.8593 19.7238 25.815 19.4595 25.7778 19.1935L28.4868 16.4843H29.8989C30.2928 17.5894 30.5468 18.7612 30.5468 19.9999C30.5468 25.8158 25.8157 30.5467 20 30.5467C14.1842 30.5467 9.45308 25.8158 9.45308 19.9999C9.45308 14.1841 14.1841 9.45312 20 9.45312Z" fill="#FFCB05"/>
</g>
<defs>
<clipPath id="clip0_1_517">
<rect width="40" height="40" fill="white" transform="matrix(-1 0 0 1 40 0)"/>
</clipPath>
</defs>
</svg>
