<svg width="40" height="40" viewBox="0 0 40 40" fill="none" xmlns="http://www.w3.org/2000/svg">
<g clip-path="url(#clip0_1_543)">
<path d="M31.6032 22.1048V15.7757C31.6032 12.6983 30.3807 9.74695 28.2046 7.5709C26.0286 5.39485 23.0772 4.17236 19.9998 4.17236C16.9224 4.17236 13.9711 5.39485 11.795 7.5709C9.61897 9.74695 8.39648 12.6983 8.39648 15.7757V22.1048C8.39648 25.1822 9.61897 28.1335 11.795 30.3096C13.9711 32.4856 16.9224 33.7081 19.9998 33.7081C23.0772 33.7081 26.0286 32.4856 28.2046 30.3096C30.3807 28.1335 31.6032 25.1822 31.6032 22.1048ZM16.0863 25.5753C16.1844 25.4764 16.3011 25.3979 16.4296 25.3444C16.5581 25.2908 16.696 25.2632 16.8353 25.2632C16.9745 25.2632 17.1124 25.2908 17.2409 25.3444C17.3695 25.3979 17.4862 25.4764 17.5842 25.5753C17.9008 25.8936 18.2772 26.1461 18.6918 26.3185C19.1063 26.4909 19.5509 26.5796 19.9998 26.5796C20.4488 26.5796 20.8933 26.4909 21.3079 26.3185C21.7224 26.1461 22.0988 25.8936 22.4154 25.5753C22.6141 25.3766 22.8835 25.265 23.1644 25.265C23.4453 25.265 23.7147 25.3766 23.9133 25.5753C24.1119 25.7739 24.2235 26.0433 24.2235 26.3242C24.2235 26.6051 24.1119 26.8745 23.9133 27.0731C20.253 30.6913 14.3564 27.3052 16.0863 25.5753Z" fill="#FFCB05"/>
<path d="M36.8775 13.666H35.6749C35.1539 9.87883 33.2793 6.40838 30.3978 3.8962C27.5163 1.38402 23.8227 0 19.9999 0C16.1771 0 12.4835 1.38402 9.60198 3.8962C6.72048 6.40838 4.84592 9.87883 4.32484 13.666H3.12231C2.28302 13.666 1.47811 13.9994 0.884638 14.5929C0.29117 15.1863 -0.0422363 15.9912 -0.0422363 16.8305V23.1596C-0.0422363 23.9989 0.29117 24.8038 0.884638 25.3973C1.47811 25.9908 2.28302 26.3242 3.12231 26.3242H6.28686C6.56662 26.3242 6.83493 26.213 7.03275 26.0152C7.23057 25.8174 7.34171 25.5491 7.34171 25.2693V14.7208C7.34496 14.468 7.25728 14.2224 7.09465 14.0288C6.93201 13.8352 6.70524 13.7064 6.45563 13.666C6.96634 10.441 8.61102 7.50407 11.0939 5.38347C13.5767 3.26288 16.7347 2.0978 19.9999 2.0978C23.2651 2.0978 26.4231 3.26288 28.9059 5.38347C31.3888 7.50407 33.0334 10.441 33.5442 13.666C33.2945 13.7064 33.0678 13.8352 32.9051 14.0288C32.7425 14.2224 32.6548 14.468 32.6581 14.7208V25.2693C32.6581 25.5491 32.7692 25.8174 32.967 26.0152C33.1649 26.213 33.4332 26.3242 33.7129 26.3242C33.7138 29.0362 32.7646 31.6629 31.0303 33.7479C29.296 35.8329 26.8861 37.2445 24.2193 37.7376C24.2657 37.3644 24.2321 36.9855 24.1207 36.6263C24.0093 36.2671 23.8226 35.9357 23.5731 35.6542C23.3236 35.3728 23.017 35.1477 22.6737 34.994C22.3304 34.8404 21.9583 34.7616 21.5822 34.763H19.4725C18.7731 34.763 18.1023 35.0408 17.6077 35.5354C17.1132 36.0299 16.8353 36.7007 16.8353 37.4001C16.8353 38.0995 17.1132 38.7703 17.6077 39.2648C18.1023 39.7594 18.7731 40.0372 19.4725 40.0372H22.1096C25.7465 40.0372 29.2345 38.5925 31.8062 36.0208C34.3779 33.4491 35.8226 29.9611 35.8226 26.3242H36.8775C37.7168 26.3242 38.5217 25.9908 39.1151 25.3973C39.7086 24.8038 40.042 23.9989 40.042 23.1596V16.8305C40.042 15.9912 39.7086 15.1863 39.1151 14.5929C38.5217 13.9994 37.7168 13.666 36.8775 13.666Z" fill="#FFCB05"/>
</g>
<defs>
<clipPath id="clip0_1_543">
<rect width="40" height="40" fill="white"/>
</clipPath>
</defs>
</svg>
