<svg height="200px" width="200px" version="1.1" id="Layer_1" xmlns="http://www.w3.org/2000/svg" xmlns:xlink="http://www.w3.org/1999/xlink" viewBox="-49.6 -49.6 595.20 595.20" xml:space="preserve" fill="#000000" transform="rotate(0)"><g id="SVGRepo_bgCarrier" stroke-width="0"></g><g id="SVGRepo_tracerCarrier" stroke-linecap="round" stroke-linejoin="round"></g><g id="SVGRepo_iconCarrier"> <g> <path style="fill:#FFCB05;" d="M472.8,128H23.2C10.4,128,0,116.8,0,104s10.4-24,23.2-24h449.6c12.8,0,23.2,11.2,23.2,24 C496,116.8,485.6,128,472.8,128z"></path> <path style="fill:#FFCB05;" d="M472.8,272H23.2C10.4,272,0,260.8,0,248c0-12.8,10.4-24,23.2-24h449.6c12.8,0,23.2,11.2,23.2,24 C496,260.8,485.6,272,472.8,272z"></path> <path style="fill:#FFCB05;" d="M472.8,416H23.2C10.4,416,0,404.8,0,392s10.4-24,23.2-24h449.6c12.8,0,23.2,11.2,23.2,24 C496,404.8,485.6,416,472.8,416z"></path> </g> <g> <path style="fill:#000000;" d="M472.8,368h-108l46.4,48H472c12.8,0,23.2-11.2,23.2-24C496,379.2,485.6,368,472.8,368z"></path> <path style="fill:#000000;" d="M472.8,224H222.4l46.4,48H472c12.8,0,23.2-11.2,23.2-24C495.2,235.2,485.6,224,472.8,224z"></path> <path style="fill:#000000;" d="M472.8,80H80l46.4,48H472c12.8,0,23.2-11.2,23.2-24C496,91.2,485.6,80,472.8,80z"></path> </g> </g></svg>