<svg width="147" height="33" viewBox="0 0 147 33" fill="none" xmlns="http://www.w3.org/2000/svg">
<g clip-path="url(#clip0_29_328)">
<path d="M1.05563 30.8885C0.613737 30.8885 0.245495 30.7334 0 30.4231L0.171846 30.1905C0.270044 30.3197 0.392792 30.4231 0.540089 30.5007C0.687386 30.5783 0.859232 30.63 1.05563 30.63C1.27657 30.63 1.44842 30.5782 1.59572 30.4748C1.74301 30.3714 1.79211 30.2163 1.79211 30.0612C1.79211 29.9061 1.74301 29.8027 1.62027 29.7251C1.49752 29.6476 1.35022 29.57 1.17838 29.5442C1.00653 29.4925 0.834683 29.4666 0.662836 29.4149C0.49099 29.3632 0.343693 29.2857 0.220945 29.1564C0.098198 29.053 0.049099 28.8979 0.049099 28.6911C0.049099 28.4584 0.147297 28.2774 0.319143 28.1223C0.49099 27.9672 0.736485 27.8896 1.03108 27.8896C1.44842 27.8896 1.76756 28.0189 2.01306 28.3033L1.84121 28.5359C1.66937 28.2774 1.39932 28.1482 1.03108 28.1482C0.810133 28.1482 0.662836 28.1999 0.540089 28.3033C0.417341 28.4067 0.343693 28.5359 0.343693 28.6911C0.343693 28.8203 0.392792 28.9237 0.515539 29.0013C0.638287 29.0788 0.785584 29.1305 0.95743 29.1822C1.12928 29.2339 1.30112 29.2598 1.47297 29.3115C1.64482 29.3632 1.79211 29.4408 1.91486 29.57C2.03761 29.6993 2.08671 29.8544 2.08671 30.0612C2.08671 30.3197 1.98851 30.5007 1.81666 30.6817C1.64482 30.8109 1.39932 30.8885 1.05563 30.8885Z" fill="#E9E9E9"/>
<path d="M4.02611 30.8884C3.63332 30.8884 3.31418 30.7333 3.06868 30.4489C2.82319 30.1646 2.70044 29.8026 2.70044 29.3632C2.70044 28.9237 2.82319 28.5617 3.06868 28.2774C3.31418 27.993 3.63332 27.8379 4.02611 27.8379C4.4189 27.8379 4.73805 27.993 4.98354 28.2774C5.22904 28.5617 5.35178 28.9237 5.35178 29.3632C5.35178 29.8026 5.22904 30.1646 4.98354 30.4489C4.73805 30.7333 4.4189 30.8884 4.02611 30.8884ZM4.02611 30.604C4.34526 30.604 4.59075 30.4748 4.7626 30.2421C4.93444 30.0095 5.03264 29.6992 5.03264 29.3632C5.03264 29.0271 4.93444 28.7427 4.7626 28.4842C4.59075 28.2515 4.34526 28.1223 4.02611 28.1223C3.70697 28.1223 3.48602 28.2515 3.28963 28.4842C3.11778 28.7169 3.01958 29.0271 3.01958 29.3632C3.01958 29.6992 3.11778 29.9836 3.28963 30.2421C3.46147 30.5006 3.70697 30.604 4.02611 30.604Z" fill="#E9E9E9"/>
<path d="M7.29125 30.8884C6.89846 30.8884 6.57931 30.7333 6.33382 30.4489C6.08832 30.1646 5.96558 29.8026 5.96558 29.3632C5.96558 28.9237 6.08832 28.5617 6.33382 28.2774C6.57931 27.993 6.89846 27.8379 7.29125 27.8379C7.68404 27.8379 8.02773 27.993 8.27323 28.3291L8.07683 28.51C7.88044 28.2515 7.63494 28.0964 7.3158 28.0964C6.99665 28.0964 6.75116 28.2257 6.55476 28.4583C6.35837 28.691 6.28472 28.9754 6.28472 29.3373C6.28472 29.6992 6.38292 29.9836 6.55476 30.2163C6.75116 30.4489 6.99665 30.5782 7.3158 30.5782C7.63494 30.5782 7.88044 30.4489 8.07683 30.1646L8.27323 30.3455C8.02773 30.7333 7.68404 30.8884 7.29125 30.8884Z" fill="#E9E9E9"/>
<path d="M9.08339 27.4756C9.03429 27.4756 8.96064 27.4497 8.91154 27.398C8.86244 27.3463 8.83789 27.2946 8.83789 27.217C8.83789 27.1653 8.86244 27.0878 8.91154 27.0619C8.96064 27.0361 9.00974 26.9844 9.08339 26.9844C9.15703 26.9844 9.20613 27.0102 9.25523 27.0619C9.30433 27.1136 9.32888 27.1653 9.32888 27.217C9.32888 27.2946 9.30433 27.3463 9.25523 27.398C9.18158 27.4497 9.13248 27.4756 9.08339 27.4756ZM9.23068 30.8363H8.93609V27.915H9.23068V30.8363Z" fill="#E9E9E9"/>
<path d="M12.201 30.8367H11.9064V30.5007C11.6609 30.785 11.3663 30.9143 10.9735 30.9143C10.728 30.9143 10.4826 30.8367 10.3107 30.6558C10.1143 30.4748 10.0161 30.2421 10.0161 29.9578C10.0161 29.6476 10.1143 29.4149 10.3107 29.2598C10.5071 29.0788 10.728 29.0013 10.9981 29.0013C11.3909 29.0013 11.6855 29.1305 11.931 29.4149V28.8203C11.931 28.6135 11.8573 28.4584 11.71 28.3291C11.5627 28.1998 11.3909 28.1481 11.1699 28.1481C10.8262 28.1481 10.5562 28.2774 10.3107 28.5618L10.1389 28.355C10.4335 28.0189 10.7771 27.8638 11.1945 27.8638C11.4891 27.8638 11.7346 27.9413 11.9064 28.0964C12.1028 28.2515 12.1765 28.4842 12.1765 28.7944V30.8367H12.201ZM11.0717 30.6558C11.44 30.6558 11.71 30.5265 11.9064 30.268V29.6217C11.71 29.3632 11.44 29.2081 11.0717 29.2081C10.8508 29.2081 10.6544 29.2856 10.5317 29.4149C10.3844 29.5441 10.3353 29.7251 10.3353 29.9319C10.3353 30.1387 10.4089 30.3197 10.5317 30.449C10.6544 30.5782 10.8262 30.6558 11.0717 30.6558Z" fill="#E9E9E9"/>
<path d="M13.404 30.8366H13.1094V26.8296H13.404V30.8366Z" fill="#E9E9E9"/>
<path d="M16.1044 30.8367H15.8098V27.9154H16.1044V28.4066C16.3745 28.0447 16.6936 27.8379 17.0373 27.8379V28.174C17.0127 28.174 16.9636 28.174 16.89 28.174C16.7427 28.174 16.5954 28.2257 16.4481 28.3291C16.3008 28.4325 16.1781 28.5617 16.1044 28.691V30.8367Z" fill="#E9E9E9"/>
<path d="M18.8294 30.8884C18.4366 30.8884 18.0929 30.7592 17.8474 30.4748C17.5773 30.1904 17.4546 29.8285 17.4546 29.389C17.4546 28.9754 17.5773 28.6135 17.8228 28.3033C18.0683 28.0189 18.3875 27.8638 18.7803 27.8638C19.1731 27.8638 19.4922 28.0189 19.7377 28.3033C19.9586 28.5876 20.0814 28.9496 20.0814 29.389V29.4666H17.7737C17.7983 29.8027 17.8965 30.0612 18.0929 30.2939C18.2893 30.5265 18.5348 30.6299 18.8539 30.6299C19.2222 30.6299 19.5167 30.5007 19.7622 30.2163L19.9095 30.4231C19.6395 30.7333 19.2713 30.8884 18.8294 30.8884ZM19.7868 29.2339C19.7868 28.9496 19.6886 28.691 19.5167 28.4842C19.3449 28.2515 19.0994 28.1481 18.7803 28.1481C18.4857 28.1481 18.2402 28.2515 18.0683 28.4842C17.8965 28.7169 17.7983 28.9754 17.7983 29.2598H19.7868V29.2339Z" fill="#E9E9E9"/>
<path d="M21.6772 30.8885C21.2353 30.8885 20.8916 30.7334 20.6216 30.4231L20.7934 30.1905C20.8916 30.3197 21.0144 30.4231 21.1617 30.5007C21.309 30.5783 21.4808 30.63 21.6772 30.63C21.8982 30.63 22.07 30.5782 22.2173 30.4748C22.3646 30.3714 22.4137 30.2163 22.4137 30.0612C22.4137 29.9061 22.3646 29.8027 22.2418 29.7251C22.1191 29.6476 21.9718 29.57 21.8 29.5442C21.6281 29.4925 21.4563 29.4666 21.2844 29.4149C21.1126 29.3632 20.9653 29.2857 20.8425 29.1564C20.7198 29.053 20.6707 28.8979 20.6707 28.6911C20.6707 28.4584 20.7689 28.2774 20.9407 28.1223C21.1126 27.9672 21.3581 27.8896 21.6527 27.8896C22.07 27.8896 22.3891 28.0189 22.6346 28.3033L22.4628 28.5359C22.2909 28.2774 22.0209 28.1482 21.6527 28.1482C21.4317 28.1482 21.2844 28.1999 21.1617 28.3033C21.0389 28.4067 20.9653 28.5359 20.9653 28.6911C20.9653 28.8203 21.0144 28.9237 21.1371 29.0013C21.2599 29.0788 21.4072 29.1305 21.579 29.1822C21.7509 29.2339 21.9227 29.2598 22.0946 29.3115C22.2664 29.3632 22.4137 29.4408 22.5364 29.57C22.6592 29.6993 22.7083 29.8544 22.7083 30.0612C22.7083 30.3197 22.6101 30.5007 22.4382 30.6817C22.2418 30.8109 21.9964 30.8885 21.6772 30.8885Z" fill="#E9E9E9"/>
<path d="M24.6721 30.8884C24.2793 30.8884 23.9356 30.7592 23.6902 30.4748C23.4201 30.1904 23.2974 29.8285 23.2974 29.389C23.2974 28.9754 23.4201 28.6135 23.6656 28.3033C23.9111 28.0189 24.2302 27.8638 24.623 27.8638C25.0158 27.8638 25.335 28.0189 25.5805 28.3033C25.8014 28.5876 25.9242 28.9496 25.9242 29.389V29.4666H23.6165C23.6411 29.8027 23.7393 30.0612 23.9356 30.2939C24.132 30.5265 24.3775 30.6299 24.6967 30.6299C25.0649 30.6299 25.3595 30.5007 25.605 30.2163L25.7523 30.4231C25.4823 30.7333 25.114 30.8884 24.6721 30.8884ZM25.6296 29.2339C25.6296 28.9496 25.5314 28.691 25.3595 28.4842C25.1877 28.2515 24.9422 28.1481 24.623 28.1481C24.3284 28.1481 24.0829 28.2515 23.9111 28.4842C23.7393 28.7169 23.6411 28.9754 23.6411 29.2598H25.6296V29.2339Z" fill="#E9E9E9"/>
<path d="M28.7474 30.8367H28.4528V30.5007C28.2073 30.785 27.9127 30.9143 27.5199 30.9143C27.2744 30.9143 27.0289 30.8367 26.8571 30.6558C26.6607 30.4748 26.5625 30.2421 26.5625 29.9578C26.5625 29.6476 26.6607 29.4149 26.8571 29.2598C27.0535 29.0788 27.2744 29.0013 27.5445 29.0013C27.9373 29.0013 28.2319 29.1305 28.4774 29.4149V28.8203C28.4774 28.6135 28.4037 28.4584 28.2564 28.3291C28.1091 28.1998 27.9373 28.1481 27.7163 28.1481C27.3726 28.1481 27.1026 28.2774 26.8571 28.5618L26.6852 28.355C26.9798 28.0189 27.3235 27.8638 27.7409 27.8638C28.0355 27.8638 28.281 27.9413 28.4528 28.0964C28.6492 28.2515 28.7229 28.4842 28.7229 28.7944V30.8367H28.7474ZM27.6181 30.6558C27.9864 30.6558 28.2564 30.5265 28.4528 30.268V29.6217C28.2564 29.3632 27.9864 29.2081 27.6181 29.2081C27.3972 29.2081 27.2008 29.2856 27.078 29.4149C26.9307 29.5441 26.8816 29.7251 26.8816 29.9319C26.8816 30.1387 26.9553 30.3197 27.078 30.449C27.2008 30.5782 27.3972 30.6558 27.6181 30.6558Z" fill="#E9E9E9"/>
<path d="M29.9504 30.8367H29.6558V27.9154H29.9504V28.4066C30.2204 28.0447 30.5395 27.8379 30.8832 27.8379V28.174C30.8587 28.174 30.8096 28.174 30.7359 28.174C30.5886 28.174 30.4413 28.2257 30.294 28.3291C30.1468 28.4325 30.024 28.5617 29.9504 28.691V30.8367Z" fill="#E9E9E9"/>
<path d="M32.6509 30.8884C32.2581 30.8884 31.9389 30.7333 31.6934 30.4489C31.4479 30.1646 31.3252 29.8026 31.3252 29.3632C31.3252 28.9237 31.4479 28.5617 31.6934 28.2774C31.9389 27.993 32.2581 27.8379 32.6509 27.8379C33.0437 27.8379 33.3874 27.993 33.6328 28.3291L33.4365 28.51C33.2401 28.2515 32.9946 28.0964 32.6754 28.0964C32.3563 28.0964 32.1108 28.2257 31.9144 28.4583C31.718 28.691 31.6443 28.9754 31.6443 29.3373C31.6443 29.6992 31.7425 29.9836 31.9144 30.2163C32.1108 30.4489 32.3563 30.5782 32.6754 30.5782C32.9946 30.5782 33.2401 30.4489 33.4365 30.1646L33.6328 30.3455C33.3874 30.7333 33.0437 30.8884 32.6509 30.8884Z" fill="#E9E9E9"/>
<path d="M36.4313 30.8366H36.1368V28.8719C36.1368 28.6134 36.0877 28.4324 35.9649 28.329C35.8422 28.2256 35.6949 28.1739 35.4739 28.1739C35.3021 28.1739 35.1302 28.2256 34.9584 28.329C34.7865 28.4324 34.6638 28.5358 34.5656 28.6909V30.8883H34.271V26.8296H34.5656V28.3807C34.6638 28.2514 34.8111 28.1222 35.0075 28.0188C35.2039 27.9154 35.3757 27.8637 35.5721 27.8637C36.1613 27.8637 36.4313 28.1739 36.4313 28.7943V30.8366Z" fill="#E9E9E9"/>
<path d="M41.8078 30.8366H41.3659C41.2186 30.7073 41.0713 30.5522 40.8749 30.3454C40.5557 30.7073 40.1875 30.8883 39.7701 30.8883C39.451 30.8883 39.1564 30.7849 38.96 30.6039C38.7391 30.4229 38.6409 30.1386 38.6409 29.8025C38.6409 29.5181 38.7145 29.2854 38.8618 29.1045C39.0091 28.9235 39.2301 28.7426 39.5001 28.5874C39.2792 28.2514 39.181 27.9411 39.181 27.6568C39.181 27.3983 39.2792 27.1914 39.451 27.0105C39.6228 26.8295 39.8438 26.752 40.0893 26.752C40.3348 26.752 40.5312 26.8295 40.6785 26.9588C40.8258 27.088 40.8994 27.269 40.8994 27.5017C40.8994 27.6051 40.8749 27.7343 40.8258 27.8377C40.7767 27.9411 40.7276 28.0187 40.703 28.0963C40.6539 28.148 40.5803 28.2255 40.4575 28.3031C40.3348 28.3806 40.2611 28.4323 40.212 28.484C40.1629 28.5357 40.0647 28.5874 39.9174 28.665C40.0156 28.8201 40.1875 29.0269 40.4084 29.2854C40.6539 29.5698 40.8258 29.7766 40.924 29.88C41.1204 29.5957 41.2431 29.2596 41.3659 28.8977L41.6359 29.0269C41.4641 29.4923 41.2922 29.8542 41.1449 30.0869C41.2431 30.2937 41.4886 30.5263 41.8078 30.8366ZM39.7947 30.6297C40.1138 30.6297 40.433 30.4746 40.703 30.1386C40.433 29.8283 40.2366 29.6215 40.1384 29.4923C39.9174 29.2079 39.7456 29.0011 39.6228 28.8201C39.4019 28.9494 39.2546 29.0786 39.1319 29.2337C39.0091 29.3889 38.96 29.5698 38.96 29.7766C38.96 30.0351 39.0337 30.242 39.2055 30.3971C39.3528 30.5522 39.5492 30.6297 39.7947 30.6297ZM39.4756 27.6826C39.4756 27.8894 39.5737 28.148 39.7456 28.4323C39.8929 28.3548 39.9911 28.3031 40.0647 28.2514C40.1384 28.1997 40.212 28.148 40.3102 28.0704C40.4084 27.9928 40.4821 27.9153 40.5066 27.8119C40.5557 27.7343 40.5557 27.6309 40.5557 27.5275C40.5557 27.3724 40.5066 27.2431 40.4084 27.1656C40.3102 27.088 40.1875 27.0363 40.0402 27.0363C39.8683 27.0363 39.7456 27.088 39.6228 27.2173C39.5247 27.3465 39.4756 27.5017 39.4756 27.6826Z" fill="#E9E9E9"/>
<path d="M46.2759 30.8366H45.9813V30.3713C45.8831 30.5264 45.7358 30.6557 45.564 30.7591C45.3921 30.8625 45.2203 30.9142 45.0239 30.9142C44.6556 30.9142 44.361 30.7849 44.1401 30.5006C43.9191 30.2162 43.7964 29.8543 43.7964 29.3889C43.7964 28.9236 43.9191 28.5617 44.1401 28.2773C44.361 27.9929 44.6556 27.8637 45.0239 27.8637C45.4167 27.8637 45.7358 28.0446 45.9813 28.4066V26.8296H46.2759V30.8366ZM45.073 30.604C45.2694 30.604 45.4412 30.5523 45.6131 30.4489C45.7849 30.3455 45.9076 30.2162 45.9813 30.0869V28.6651C45.9076 28.51 45.7603 28.3807 45.6131 28.2773C45.4412 28.1739 45.2694 28.1222 45.073 28.1222C44.7784 28.1222 44.5329 28.2514 44.361 28.4841C44.1892 28.7168 44.091 29.027 44.091 29.3631C44.091 29.6992 44.1892 30.0094 44.361 30.242C44.5574 30.5006 44.7784 30.604 45.073 30.604Z" fill="#E9E9E9"/>
<path d="M49.2462 30.8367H48.9516V30.5007C48.7061 30.785 48.4115 30.9143 48.0187 30.9143C47.7732 30.9143 47.5277 30.8367 47.3559 30.6558C47.1595 30.4748 47.0613 30.2421 47.0613 29.9578C47.0613 29.6476 47.1595 29.4149 47.3559 29.2598C47.5523 29.0788 47.7732 29.0013 48.0433 29.0013C48.4361 29.0013 48.7306 29.1305 48.9761 29.4149V28.8203C48.9761 28.6135 48.9025 28.4584 48.7552 28.3291C48.6079 28.1998 48.4361 28.1481 48.2151 28.1481C47.8714 28.1481 47.6014 28.2774 47.3559 28.5618L47.184 28.355C47.4786 28.0189 47.8223 27.8638 48.2397 27.8638C48.5342 27.8638 48.7797 27.9413 48.9516 28.0964C49.148 28.2515 49.2216 28.4842 49.2216 28.7944V30.8367H49.2462ZM48.1169 30.6558C48.4852 30.6558 48.7552 30.5265 48.9516 30.268V29.6217C48.7552 29.3632 48.4852 29.2081 48.1169 29.2081C47.896 29.2081 47.6996 29.2856 47.5768 29.4149C47.4295 29.5441 47.3804 29.7251 47.3804 29.9319C47.3804 30.1387 47.4541 30.3197 47.5768 30.449C47.7241 30.5782 47.896 30.6558 48.1169 30.6558Z" fill="#E9E9E9"/>
<path d="M50.7682 30.8882C50.4 30.8882 50.2282 30.6813 50.2282 30.2677V28.1996H49.7617V27.9152H50.2282V27.1138H50.5228V27.9152H51.0874V28.1996H50.5228V30.216C50.5228 30.4745 50.621 30.6038 50.8173 30.6038C50.9401 30.6038 51.0383 30.5521 51.1365 30.4745L51.2592 30.7072C51.1119 30.8364 50.9646 30.8882 50.7682 30.8882Z" fill="#E9E9E9"/>
<path d="M53.7879 30.8367H53.4933V30.5007C53.2478 30.785 52.9533 30.9143 52.5605 30.9143C52.315 30.9143 52.0695 30.8367 51.8976 30.6558C51.7012 30.4748 51.603 30.2421 51.603 29.9578C51.603 29.6476 51.7012 29.4149 51.8976 29.2598C52.094 29.0788 52.315 29.0013 52.585 29.0013C52.9778 29.0013 53.2724 29.1305 53.5179 29.4149V28.8203C53.5179 28.6135 53.4442 28.4584 53.2969 28.3291C53.1496 28.1998 52.9778 28.1481 52.7569 28.1481C52.4132 28.1481 52.1431 28.2774 51.8976 28.5618L51.7258 28.355C52.0204 28.0189 52.3641 27.8638 52.7814 27.8638C53.076 27.8638 53.3215 27.9413 53.4933 28.0964C53.6897 28.2515 53.7634 28.4842 53.7634 28.7944V30.8367H53.7879ZM52.6587 30.6558C53.0269 30.6558 53.2969 30.5265 53.4933 30.268V29.6217C53.2969 29.3632 53.0269 29.2081 52.6587 29.2081C52.4377 29.2081 52.2413 29.2856 52.1186 29.4149C51.9713 29.5441 51.9222 29.7251 51.9222 29.9319C51.9222 30.1387 51.9958 30.3197 52.1186 30.449C52.2659 30.5782 52.4377 30.6558 52.6587 30.6558Z" fill="#E9E9E9"/>
<path d="M58.2313 30.8367H57.9367V30.5007C57.6912 30.785 57.3966 30.9143 57.0038 30.9143C56.7583 30.9143 56.5128 30.8367 56.341 30.6558C56.1446 30.4748 56.0464 30.2421 56.0464 29.9578C56.0464 29.6476 56.1446 29.4149 56.341 29.2598C56.5374 29.0788 56.7583 29.0013 57.0284 29.0013C57.4212 29.0013 57.7158 29.1305 57.9612 29.4149V28.8203C57.9612 28.6135 57.8876 28.4584 57.7403 28.3291C57.593 28.1998 57.4212 28.1481 57.2002 28.1481C56.8565 28.1481 56.5865 28.2774 56.341 28.5618L56.1691 28.355C56.4637 28.0189 56.8074 27.8638 57.2248 27.8638C57.5194 27.8638 57.7649 27.9413 57.9367 28.0964C58.1331 28.2515 58.2067 28.4842 58.2067 28.7944V30.8367H58.2313ZM57.102 30.6558C57.4703 30.6558 57.7403 30.5265 57.9367 30.268V29.6217C57.7403 29.3632 57.4703 29.2081 57.102 29.2081C56.8811 29.2081 56.6847 29.2856 56.5619 29.4149C56.4146 29.5441 56.3655 29.7251 56.3655 29.9319C56.3655 30.1387 56.4392 30.3197 56.5619 30.449C56.7092 30.5782 56.8811 30.6558 57.102 30.6558Z" fill="#E9E9E9"/>
<path d="M61.3247 30.8367H61.0301V28.872C61.0301 28.6134 60.981 28.4325 60.8582 28.3032C60.7355 28.174 60.5882 28.1481 60.3672 28.1481C60.1954 28.1481 60.0235 28.1998 59.8517 28.3032C59.6798 28.4066 59.5571 28.51 59.4589 28.6652V30.8626H59.1643V27.9154H59.4589V28.3549C59.5571 28.2257 59.7044 28.0964 59.9008 27.993C60.0972 27.8896 60.269 27.8379 60.4654 27.8379C61.0546 27.8379 61.3247 28.1481 61.3247 28.7686V30.8367Z" fill="#E9E9E9"/>
<path d="M64.295 30.8367H64.0004V30.5007C63.7549 30.785 63.4603 30.9143 63.0675 30.9143C62.822 30.9143 62.5765 30.8367 62.4047 30.6558C62.2083 30.4748 62.1101 30.2421 62.1101 29.9578C62.1101 29.6476 62.2083 29.4149 62.4047 29.2598C62.6011 29.0788 62.822 29.0013 63.0921 29.0013C63.4849 29.0013 63.7795 29.1305 64.025 29.4149V28.8203C64.025 28.6135 63.9513 28.4584 63.804 28.3291C63.6567 28.1998 63.4849 28.1481 63.2639 28.1481C62.9202 28.1481 62.6502 28.2774 62.4047 28.5618L62.2329 28.355C62.5274 28.0189 62.8711 27.8638 63.2885 27.8638C63.5831 27.8638 63.8286 27.9413 64.0004 28.0964C64.1968 28.2515 64.2705 28.4842 64.2705 28.7944V30.8367H64.295ZM63.1657 30.6558C63.534 30.6558 63.804 30.5265 64.0004 30.268V29.6217C63.804 29.3632 63.534 29.2081 63.1657 29.2081C62.9448 29.2081 62.7484 29.2856 62.6256 29.4149C62.4784 29.5441 62.4293 29.7251 62.4293 29.9319C62.4293 30.1387 62.5029 30.3197 62.6256 30.449C62.7484 30.5782 62.9202 30.6558 63.1657 30.6558Z" fill="#E9E9E9"/>
<path d="M65.498 30.8366H65.2034V26.8296H65.498V30.8366Z" fill="#E9E9E9"/>
<path d="M66.2346 31.9484L66.2837 31.6641C66.3574 31.6899 66.431 31.7158 66.5292 31.7158C66.7256 31.7158 66.8484 31.5865 66.9466 31.3538L67.1675 30.8368L66.0137 27.9155H66.3328L67.3393 30.449L68.3213 27.9155H68.665L67.2411 31.4572C67.0938 31.8192 66.8729 32.0001 66.5292 32.0001C66.431 32.0001 66.3328 31.9743 66.2346 31.9484Z" fill="#E9E9E9"/>
<path d="M69.7697 30.8882C69.4015 30.8882 69.2296 30.6813 69.2296 30.2677V28.1996H68.7632V27.9152H69.2296V27.1138H69.5242V27.9152H70.0889V28.1996H69.5242V30.216C69.5242 30.4745 69.6224 30.6038 69.8188 30.6038C69.9416 30.6038 70.0398 30.5521 70.138 30.4745L70.2607 30.7072C70.1134 30.8364 69.9661 30.8882 69.7697 30.8882Z" fill="#E9E9E9"/>
<path d="M70.8744 27.4756C70.8253 27.4756 70.7517 27.4497 70.7026 27.398C70.6535 27.3463 70.6289 27.2946 70.6289 27.2429C70.6289 27.1912 70.6535 27.1137 70.7026 27.0878C70.7517 27.062 70.8008 27.0103 70.8744 27.0103C70.948 27.0103 70.9971 27.0361 71.0462 27.0878C71.0953 27.1395 71.1199 27.1912 71.1199 27.2429C71.1199 27.3205 71.0953 27.3722 71.0462 27.4239C70.9971 27.4497 70.948 27.4756 70.8744 27.4756ZM71.0217 30.8363H70.7271V27.9151H71.0217V30.8363Z" fill="#E9E9E9"/>
<path d="M73.133 30.8884C72.7403 30.8884 72.4211 30.7333 72.1756 30.4489C71.9301 30.1646 71.8074 29.8026 71.8074 29.3632C71.8074 28.9237 71.9301 28.5617 72.1756 28.2774C72.4211 27.993 72.7403 27.8379 73.133 27.8379C73.5258 27.8379 73.8695 27.993 74.115 28.3291L73.9186 28.51C73.7222 28.2515 73.4767 28.0964 73.1576 28.0964C72.8385 28.0964 72.593 28.2257 72.3966 28.4583C72.2002 28.691 72.1265 28.9754 72.1265 29.3373C72.1265 29.6992 72.2247 29.9836 72.3966 30.2163C72.593 30.4489 72.8385 30.5782 73.1576 30.5782C73.4767 30.5782 73.7222 30.4489 73.9186 30.1646L74.115 30.3455C73.8695 30.7333 73.5258 30.8884 73.133 30.8884Z" fill="#E9E9E9"/>
<path d="M75.5879 30.8885C75.146 30.8885 74.8023 30.7334 74.5322 30.4231L74.7041 30.1905C74.8023 30.3197 74.925 30.4231 75.0723 30.5007C75.2196 30.5783 75.3915 30.63 75.5879 30.63C75.8088 30.63 75.9806 30.5782 76.1279 30.4748C76.2752 30.3714 76.3243 30.2163 76.3243 30.0612C76.3243 29.9061 76.2752 29.8027 76.1525 29.7251C76.0297 29.6476 75.8824 29.57 75.7106 29.5442C75.5388 29.4925 75.3669 29.4666 75.1951 29.4149C75.0232 29.3632 74.8759 29.2857 74.7532 29.1564C74.6304 29.053 74.5813 28.8979 74.5813 28.6911C74.5813 28.4584 74.6795 28.2774 74.8514 28.1223C75.0232 27.9672 75.2687 27.8896 75.5633 27.8896C75.9806 27.8896 76.2998 28.0189 76.5453 28.3033L76.3734 28.5359C76.2016 28.2774 75.9315 28.1482 75.5633 28.1482C75.3424 28.1482 75.1951 28.1999 75.0723 28.3033C74.9496 28.4067 74.8759 28.5359 74.8759 28.6911C74.8759 28.8203 74.925 28.9237 75.0478 29.0013C75.1705 29.0788 75.3178 29.1305 75.4897 29.1822C75.6615 29.2339 75.8333 29.2598 76.0052 29.3115C76.177 29.3632 76.3243 29.4408 76.4471 29.57C76.5698 29.6993 76.6189 29.8544 76.6189 30.0612C76.6189 30.3197 76.5207 30.5007 76.3489 30.6817C76.177 30.8109 75.9315 30.8885 75.5879 30.8885Z" fill="#E9E9E9"/>
<path d="M80.0312 30.8884C79.6384 30.8884 79.3193 30.7333 79.0738 30.4489C78.8283 30.1646 78.7056 29.8026 78.7056 29.3632C78.7056 28.9237 78.8283 28.5617 79.0738 28.2774C79.3193 27.993 79.6384 27.8379 80.0312 27.8379C80.424 27.8379 80.7677 27.993 81.0132 28.3291L80.8168 28.51C80.6204 28.2515 80.3749 28.0964 80.0558 28.0964C79.7366 28.0964 79.4911 28.2257 79.2948 28.4583C79.0984 28.691 79.0247 28.9754 79.0247 29.3373C79.0247 29.6992 79.1229 29.9836 79.2948 30.2163C79.4911 30.4489 79.7366 30.5782 80.0558 30.5782C80.3749 30.5782 80.6204 30.4489 80.8168 30.1646L81.0132 30.3455C80.7677 30.7333 80.4486 30.8884 80.0312 30.8884Z" fill="#E9E9E9"/>
<path d="M82.9036 30.8884C82.5108 30.8884 82.1671 30.7592 81.9216 30.4748C81.6516 30.1904 81.5288 29.8285 81.5288 29.389C81.5288 28.9754 81.6516 28.6135 81.8971 28.3033C82.1425 28.0189 82.4617 27.8638 82.8545 27.8638C83.2473 27.8638 83.5664 28.0189 83.8119 28.3033C84.0329 28.5876 84.1556 28.9496 84.1556 29.389V29.4666H81.8479C81.8725 29.8027 81.9707 30.0612 82.1671 30.2939C82.3635 30.5265 82.609 30.6299 82.9281 30.6299C83.2964 30.6299 83.591 30.5007 83.8365 30.2163L83.9838 30.4231C83.6892 30.7333 83.3209 30.8884 82.9036 30.8884ZM83.8365 29.2339C83.8365 28.9496 83.7383 28.691 83.5664 28.4842C83.3946 28.2515 83.1491 28.1481 82.8299 28.1481C82.5353 28.1481 82.2898 28.2515 82.118 28.4842C81.9461 28.7169 81.8479 28.9754 81.8479 29.2598H83.8365V29.2339Z" fill="#E9E9E9"/>
<path d="M87.0524 30.8367H86.7579V28.872C86.7579 28.6134 86.7088 28.4325 86.586 28.3032C86.4633 28.174 86.316 28.1481 86.095 28.1481C85.9232 28.1481 85.7513 28.1998 85.5795 28.3032C85.4076 28.4066 85.2849 28.51 85.1867 28.6652V30.8626H84.8921V27.9154H85.1867V28.3549C85.2849 28.2257 85.4322 28.0964 85.6286 27.993C85.825 27.8896 85.9968 27.8379 86.1932 27.8379C86.7824 27.8379 87.0524 28.1481 87.0524 28.7686V30.8367Z" fill="#E9E9E9"/>
<path d="M88.5746 30.8882C88.2064 30.8882 88.0346 30.6813 88.0346 30.2677V28.1996H87.5681V27.9152H88.0346V27.1138H88.3291V27.9152H88.8938V28.1996H88.3291V30.216C88.3291 30.4745 88.4273 30.6038 88.6237 30.6038C88.7465 30.6038 88.8447 30.5521 88.9429 30.4745L89.0656 30.7072C88.9183 30.8364 88.771 30.8882 88.5746 30.8882Z" fill="#E9E9E9"/>
<path d="M90.7839 30.8884C90.3912 30.8884 90.0475 30.7592 89.802 30.4748C89.5319 30.1904 89.4092 29.8285 89.4092 29.389C89.4092 28.9754 89.5319 28.6135 89.7774 28.3033C90.0229 28.0189 90.3421 27.8638 90.7349 27.8638C91.1276 27.8638 91.4468 28.0189 91.6923 28.3033C91.9132 28.5876 92.036 28.9496 92.036 29.389V29.4666H89.7283C89.7529 29.8027 89.8511 30.0612 90.0475 30.2939C90.2439 30.5265 90.4894 30.6299 90.8085 30.6299C91.1767 30.6299 91.4713 30.5007 91.7168 30.2163L91.8641 30.4231C91.5695 30.7333 91.2013 30.8884 90.7839 30.8884ZM91.7168 29.2339C91.7168 28.9496 91.6186 28.691 91.4468 28.4842C91.2749 28.2515 91.0294 28.1481 90.7103 28.1481C90.4157 28.1481 90.1702 28.2515 89.9984 28.4842C89.8265 28.7169 89.7283 28.9754 89.7283 29.2598H91.7168V29.2339Z" fill="#E9E9E9"/>
<path d="M93.0917 30.8367H92.7971V27.9154H93.0917V28.4066C93.3618 28.0447 93.6809 27.8379 94.0246 27.8379V28.174C94 28.174 93.9509 28.174 93.8773 28.174C93.73 28.174 93.5827 28.2257 93.4354 28.3291C93.2881 28.4325 93.1654 28.5617 93.0917 28.691V30.8367Z" fill="#E9E9E9"/>
<path d="M1.89031 22.0212C1.17838 21.7109 0.540089 21.2973 0 20.7544L1.22747 19.2291C1.66937 19.6686 2.16036 20.0047 2.67589 20.2632C3.19143 20.4959 3.70697 20.6251 4.19796 20.6251C4.8117 20.6251 5.27814 20.4959 5.62183 20.2115C5.96553 19.953 6.11282 19.5652 6.11282 19.0999C6.11282 18.6863 6.01463 18.376 5.79368 18.1434C5.57273 17.9365 5.20449 17.7039 4.6644 17.4454C4.02612 17.161 3.41238 16.8766 2.79864 16.6181C2.06216 16.3079 1.49752 15.8942 1.10473 15.3514C0.687386 14.8085 0.49099 14.1622 0.49099 13.4125C0.49099 12.7662 0.662836 12.1716 1.00653 11.6545C1.35022 11.1375 1.81666 10.7239 2.4304 10.4395C3.01959 10.1551 3.68242 10 4.39436 10C5.05719 10 5.72003 10.1293 6.33377 10.3878C6.97205 10.6463 7.4876 11.0341 7.95404 11.4994L6.87386 12.9213C6.45652 12.5593 6.06372 12.3008 5.67093 12.1199C5.27814 11.9389 4.8608 11.8613 4.39436 11.8613C3.85427 11.8613 3.43693 11.9906 3.14233 12.2233C2.84774 12.4818 2.67589 12.8179 2.67589 13.2573C2.67589 13.6193 2.79864 13.9036 3.04414 14.1363C3.28963 14.369 3.65787 14.6016 4.19796 14.8343C4.44346 14.9119 5.03265 15.1962 6.03917 15.6357C6.80021 15.9459 7.3894 16.3596 7.78219 16.8766C8.17498 17.3937 8.37138 18.04 8.37138 18.8414C8.37138 19.5652 8.17498 20.1857 7.80674 20.7544C7.4385 21.2973 6.92296 21.7109 6.30922 22.0212C5.67093 22.3055 4.959 22.4606 4.17341 22.4606C3.36328 22.4606 2.60225 22.3314 1.89031 22.0212Z" fill="white"/>
<path d="M10.4336 22.2541V10.2329H12.5939V15.0672H17.1111V10.2329H19.296V22.2541H17.1111V16.9544H12.5939V22.2541H10.4336Z" fill="white"/>
<path d="M22.1682 22.2541V10.2329H29.1894V12.0684H24.3286V15.1189H28.4283V16.9544H24.3286V20.4444H29.3612V22.2799H22.1682V22.2541Z" fill="white"/>
<path d="M40.4575 10.2329V22.2541H38.1989L35.0812 16.2306L33.5345 13.0766C33.6573 14.059 33.7309 14.8087 33.7555 15.3257C33.78 15.8428 33.8046 16.4632 33.8046 17.2129V22.2541H31.7424V10.2329H34.001L37.2661 16.5149L38.6654 19.4362C38.5672 18.4538 38.4935 17.6783 38.4444 17.0837C38.4199 16.5149 38.3953 15.8686 38.3953 15.2223V10.2329H40.4575Z" fill="white"/>
<path d="M41.9304 22.2541L45.6128 10.2329H48.1905L51.873 22.2541H49.5899L48.7306 19.0484H44.9991L44.1399 22.2541H41.9304ZM48.2887 17.3422L47.8959 15.8945C47.7487 15.3774 47.5768 14.757 47.405 14.0073C47.3559 13.8263 47.3313 13.6971 47.2822 13.5937C47.1104 12.9215 46.9631 12.4045 46.8649 12.0684H46.7912C46.7667 12.2494 46.7176 12.4562 46.6439 12.6888C46.5703 12.9215 46.5212 13.1025 46.4966 13.2317L46.3002 13.9814C46.202 14.4209 46.0302 15.0672 45.7847 15.8945L45.3919 17.3422H48.2887Z" fill="white"/>
<path d="M52.1187 22.2541L55.8011 10.2329H58.3788L62.0612 22.2541H59.7781L58.9434 19.0484H55.2119L54.3527 22.2541H52.1187ZM58.5015 17.3422L58.1087 15.8945C57.9614 15.3774 57.7896 14.757 57.6177 14.0073C57.5686 13.8263 57.5441 13.6971 57.495 13.5937C57.3231 12.9215 57.1758 12.4045 57.0776 12.0684H57.004C56.9795 12.2494 56.9304 12.4562 56.8567 12.6888C56.7831 12.9215 56.734 13.1025 56.7094 13.2317L56.513 13.9814C56.4148 14.4209 56.243 15.0672 55.9975 15.8945L55.6047 17.3422H58.5015Z" fill="white"/>
<path d="M65.9399 22.2541H63.7795V10.2329H65.9399V15.6877L69.9415 10.2329H72.3228L68.8122 14.9121L72.912 22.2541H70.5552L67.5111 16.7217L65.9153 18.7899V22.2541H65.9399Z" fill="white"/>
<path d="M74.385 22.2541V10.2329H76.5454V15.0672H81.0625V10.2329H83.2474V22.2541H81.0625V16.9544H76.5454V22.2541H74.385Z" fill="white"/>
<path d="M90.6367 22.2541H88.4272V12.0425H85.1621V10.2329H93.9263V12.0684H90.6367V22.2541Z" fill="white"/>
</g>
<g clip-path="url(#clip1_29_328)">
<path d="M110.021 18.6012L103 11.7857L104.686 9.79224C105.017 9.38816 113.087 0 125.007 0C136.926 0 144.983 9.38816 145.328 9.79224L141.186 13.402C141.12 13.3212 134.364 5.53592 125.007 5.53592C118.543 5.53592 113.326 9.25347 110.685 11.5702L113.804 14.5873L110.021 18.6012Z" fill="white"/>
<path d="M125.007 33.0001C113.088 33.0001 105.018 23.6119 104.686 23.2213L108.827 19.6115C108.893 19.6923 115.649 27.4776 125.007 27.4776C131.511 27.4776 136.714 23.7735 139.328 21.4568L136.209 18.4262L139.979 14.4258L147 21.2413L145.314 23.2348C144.983 23.6119 136.913 33.0001 125.007 33.0001Z" fill="#FFCA05"/>
<path d="M127.94 16.5807C127.94 18.224 126.626 19.5575 125.007 19.5575C123.387 19.5575 122.073 18.224 122.073 16.5807C122.073 14.9375 123.387 13.604 125.007 13.604C125.113 13.604 125.219 13.604 125.325 13.6175C125.126 13.8734 125.007 14.1967 125.007 14.5469C125.007 15.3685 125.657 16.042 126.48 16.042C126.984 16.042 127.436 15.786 127.701 15.382C127.847 15.7456 127.94 16.1497 127.94 16.5807Z" fill="white"/>
<path d="M125.378 9.15918L125.046 12.7959L124.715 9.15918H125.378Z" fill="#FFCA05"/>
<path d="M126.387 9.28052L125.71 12.0956L125.869 9.19971L126.387 9.28052Z" fill="white"/>
<path d="M128.444 10.0078L126.958 12.5266L127.967 9.77881L128.444 10.0078Z" fill="white"/>
<path d="M129.36 10.6003L127.568 12.7958L128.922 10.2905L129.36 10.6003Z" fill="#FFCA05"/>
<path d="M130.94 12.203L128.285 13.9406L130.528 11.6777L130.94 12.203Z" fill="white"/>
<path d="M131.524 13.1329L129.042 14.2104L131.192 12.5537L131.524 13.1329Z" fill="#FFCA05"/>
<path d="M131.895 14.0219L128.829 15.0455L131.749 13.6582L131.895 14.0219Z" fill="white"/>
<path d="M132.201 15.0859L129.758 15.4631L132.108 14.6953L132.201 15.0859Z" fill="#FFCA05"/>
<path d="M132.307 17.2949L128.763 16.8369L132.347 16.8908L132.307 17.2949Z" fill="white"/>
<path d="M132.134 18.3723L130.94 17.9009L132.214 17.9817L132.134 18.3723Z" fill="#FFCA05"/>
<path d="M131.232 20.5272L128.829 18.7627L131.55 19.9345L131.232 20.5272Z" fill="#FFCA05"/>
<path d="M130.581 21.4162L129.374 20.0288L130.993 20.8909L130.581 21.4162Z" fill="white"/>
<path d="M129.811 22.1977L128.511 20.312L130.289 21.7398L129.811 22.1977Z" fill="white"/>
<path d="M128.935 22.8577L127.94 20.7969L129.48 22.4671L128.935 22.8577Z" fill="white"/>
<path d="M127.13 23.6789L126.599 21.5508L127.382 23.5981L127.13 23.6789Z" fill="#FFCA05"/>
<path d="M125.883 23.9486L125.776 21.2412L126.533 23.8408L125.883 23.9486Z" fill="white"/>
<path d="M124.794 23.9888L125.086 21.1333L125.458 23.9753L124.794 23.9888Z" fill="#FFCA05"/>
<path d="M122.657 23.5849L123.985 20.2041L123.294 23.7735L122.657 23.5849Z" fill="white"/>
<path d="M121.649 23.154L122.803 21.4434L122.259 23.4368L121.649 23.154Z" fill="white"/>
<path d="M120.733 22.5613L122.989 19.7192L121.277 22.9384L120.733 22.5613Z" fill="#FFCA05"/>
<path d="M119.896 21.8473L121.781 20.231L120.388 22.3052L119.896 21.8473Z" fill="white"/>
<path d="M118.702 20.2579L121.848 18.5068L118.835 20.4868L118.702 20.2579Z" fill="white"/>
<path d="M118.158 19.0727L120.308 18.5474L118.41 19.6923L118.158 19.0727Z" fill="white"/>
<path d="M117.866 18.0085L121.423 17.4697L118.025 18.655L117.866 18.0085Z" fill="#FFCA05"/>
<path d="M117.773 15.7998L119.246 16.2308L117.733 16.4733L117.773 15.7998Z" fill="white"/>
<path d="M117.959 14.7222L120.467 15.5977L117.826 15.3822L117.959 14.7222Z" fill="white"/>
<path d="M118.755 12.8096L120.215 13.8602L118.556 13.1598L118.755 12.8096Z" fill="white"/>
<path d="M119.366 11.9067L122.087 14.2774L119.127 12.2165L119.366 11.9067Z" fill="#FFCA05"/>
<path d="M120.215 11.0044L121.277 12.6073L119.737 11.4758L120.215 11.0044Z" fill="white"/>
<path d="M121.078 10.3447L122.379 12.7692L120.547 10.7353L121.078 10.3447Z" fill="#FFCA05"/>
<path d="M121.98 9.84619L122.803 12.0956L121.502 10.0886L121.98 9.84619Z" fill="white"/>
<path d="M124.131 9.21289L124.277 12.0953L123.48 9.33412L124.131 9.21289Z" fill="white"/>
</g>
<defs>
<clipPath id="clip0_29_328">
<rect width="94" height="22" fill="white" transform="translate(0 10)"/>
</clipPath>
<clipPath id="clip1_29_328">
<rect width="44" height="33" fill="white" transform="translate(103)"/>
</clipPath>
</defs>
</svg>
