<svg width="19" height="18" viewBox="0 0 19 18" fill="none" xmlns="http://www.w3.org/2000/svg">
<path fill-rule="evenodd" clip-rule="evenodd" d="M2.573 8.94907C2.573 8.64017 2.83883 8.38975 3.16675 8.38975H15.8331C16.161 8.38975 16.4268 8.64017 16.4268 8.94907C16.4268 9.25796 16.161 9.50838 15.8331 9.50838H3.16675C2.83883 9.50838 2.573 9.25796 2.573 8.94907ZM5.1721 14.1694C5.1721 13.8605 5.43793 13.6101 5.76585 13.6101H15.8334C16.1613 13.6101 16.4272 13.8605 16.4272 14.1694C16.4272 14.4783 16.1613 14.7287 15.8334 14.7287H5.76585C5.43793 14.7287 5.1721 14.4783 5.1721 14.1694ZM9.67575 3.72875C9.67575 3.41985 9.94159 3.16943 10.2695 3.16943H15.8334C16.1613 3.16943 16.4272 3.41985 16.4272 3.72875C16.4272 4.03765 16.1613 4.28807 15.8334 4.28807H10.2695C9.94159 4.28807 9.67575 4.03765 9.67575 3.72875Z" fill="#202020"/>
</svg>
