<svg width="130" height="130" viewBox="0 0 130 130" fill="none" xmlns="http://www.w3.org/2000/svg">
<rect opacity="0.05" x="0.00219727" y="0.000549316" width="130" height="130" rx="5" fill="white"/>
<path d="M60.0822 12.4079C60.2133 12.3875 60.3454 12.3724 60.4797 12.3649C60.7203 13.1974 60.7837 14.0955 61.2263 14.8582C62.1974 16.5597 63.6433 17.9272 64.638 19.6137C65.2363 20.6439 65.3642 21.9448 64.9356 23.062C64.2438 24.8903 63.1137 26.5005 62.0932 28.1548C61.5668 29.011 60.9169 29.7812 60.3787 30.6298C59.9866 31.2991 59.4656 31.9049 58.79 32.2981C58.6525 31.4548 58.9597 30.5622 58.6009 29.7522C57.6567 27.7542 55.635 26.4984 54.7767 24.4477C54.4759 23.4906 54.5747 22.4164 55.0087 21.514C56.2559 18.9509 57.7233 16.5028 59.1498 14.0375C59.4689 13.4993 59.6472 12.8698 60.0822 12.4079V12.4079Z" fill="white"/>
<path d="M67.2441 29.9209C68.9285 29.7071 70.7203 29.6963 72.2983 30.4021C75.0118 31.5655 77.0679 34.1458 77.5738 37.0569C77.9831 38.6005 78.0852 40.2097 78.0003 41.8006C77.9756 43.4496 77.5781 45.0749 77.0099 46.6164C76.1806 48.8142 74.9087 50.8466 73.2856 52.5461C72.2565 53.5623 71.2768 54.6386 70.1145 55.5077C68.6471 56.6313 66.9412 57.5132 65.0925 57.7592C64.1697 57.8795 63.2556 58.1449 62.3178 58.0922C59.7998 57.8978 57.3259 57.2984 54.9519 56.4498C53.1751 55.7956 51.3715 55.2241 49.5786 54.6182C48.2853 54.2981 47.0026 53.8405 45.6566 53.8265C45.0486 53.8169 44.678 54.3937 44.4911 54.8997C43.9379 56.482 43.519 58.1062 43.0957 59.7261C42.8787 60.607 42.6026 61.4739 42.4651 62.373C42.304 63.3849 42.2009 64.4054 42.087 65.4227C41.9065 67.8569 42.275 70.3254 43.1301 72.6092C43.7016 74.1035 44.707 75.4742 46.1132 76.2766C48.05 77.4883 50.4799 77.4378 52.6401 76.9652C54.7961 76.4152 56.9112 75.6836 58.9071 74.6964C60.6893 73.8242 62.3511 72.7317 63.986 71.6124C67.3634 69.2888 70.7633 66.9997 74.1804 64.7341C76.0936 63.4966 78.0938 62.3923 80.1691 61.4503C81.1198 61.0152 82.1371 60.7585 83.1469 60.4985C83.8784 60.3374 84.697 60.3696 85.3447 60.7821C85.7282 61.0335 86.0505 61.3643 86.4147 61.6415C86.9733 62.0991 87.6822 62.3397 88.1979 62.8553C88.692 63.357 89.2259 63.979 89.112 64.7384C88.1194 64.8244 87.1387 64.4409 86.1493 64.6439C84.7238 64.8201 83.4627 65.5473 82.2026 66.1843C81.1112 66.7322 80.123 67.4573 79.1164 68.1416C77.6308 69.1535 76.1441 70.1686 74.754 71.3105C71.2778 73.9853 68.0004 76.9168 64.4028 79.4337C62.7475 80.5918 61.0502 81.6928 59.2992 82.7037C57.2185 83.8058 55.0904 84.8918 52.7819 85.429C50.6056 85.9714 48.31 86.385 46.0831 85.8973C44.6179 85.5933 43.0613 85.2539 41.9184 84.2205C40.4972 82.9002 39.7517 81.0461 39.1898 79.2318C38.8805 77.9105 38.5604 76.5752 38.5604 75.2099C38.5732 74.4526 38.353 73.7006 38.4615 72.9444C38.6517 71.81 38.4798 70.6488 38.6946 69.5176C38.9567 68.2071 39.0717 66.8729 39.3456 65.5645C39.6926 64.1519 39.9805 62.7232 40.393 61.3256C40.8624 59.6735 41.407 58.0439 41.956 56.4175C42.2267 55.6086 42.796 54.8739 42.7434 53.9823C42.0215 53.8201 41.2867 54.0177 40.61 54.2659C39.9558 54.5162 39.2822 54.7267 38.6699 55.0758C37.9298 55.4722 37.2648 55.9889 36.5763 56.4659C36.369 56.6163 36.0005 56.7086 35.8469 56.439C35.7266 56.1866 35.7953 55.8912 35.8952 55.6452C36.7181 53.5504 38.3509 51.8295 40.2984 50.7306C41.0096 50.3998 41.5832 49.853 42.0849 49.2611C42.883 48.3276 43.8315 47.5112 44.9326 46.9558C45.4708 46.6615 46.096 46.5422 46.5912 46.1641C47.0542 45.8429 47.3958 45.3821 47.6708 44.8965C50.2006 40.7576 53.4555 37.015 57.4344 34.2134C58.1713 33.5904 59.0436 33.1693 59.8922 32.7235C62.1652 31.4001 64.622 30.2979 67.2441 29.9209M59.7901 36.0686C58.1283 36.7121 56.6609 37.7412 55.2483 38.8079C53.9937 39.8004 52.8958 40.9692 51.7797 42.11C51.0041 42.9253 50.4208 43.8975 49.671 44.7343C49.3928 45.0276 49.5056 45.4551 49.5174 45.8161C50.916 45.8472 52.3157 45.945 53.7015 46.1405C57.7889 46.915 61.6077 48.6509 65.636 49.651C66.7221 49.9916 67.8618 50.07 68.9822 50.2311C69.775 50.345 70.5732 50.1935 71.353 50.0549C72.1512 49.911 72.6056 49.1784 73.162 48.666C74.1675 47.696 74.6101 46.2801 74.6896 44.9159C74.6444 43.6687 74.7927 42.4086 74.5907 41.1701C74.2685 39.8423 73.5208 38.6338 72.5798 37.6552C71.8848 37.0128 71.1607 36.3748 70.2971 35.9709C69.1638 35.4756 67.9628 35.1233 66.7317 34.9987C64.376 34.7828 61.9815 35.191 59.7901 36.0686V36.0686Z" fill="white"/>
<path d="M86.8305 67.1844C87.8854 66.672 89.096 66.585 90.2476 66.7182C90.7825 66.802 91.1746 67.2091 91.5484 67.5669C92.1693 68.1684 92.9578 68.5874 93.4982 69.2738C93.8666 69.7572 94.278 70.2878 94.2168 70.9356C94.0772 70.9947 93.9439 71.0957 93.785 71.0752C93.2833 71.0624 92.7849 70.9796 92.2821 70.9979C91.3024 71.0269 90.341 71.3073 89.4666 71.7423C87.5534 72.6597 85.8529 73.9542 84.2341 75.312C82.8129 76.5377 81.3971 77.7741 80.0876 79.1201C78.4269 80.7905 76.7532 82.448 75.0033 84.0271C73.6745 85.3473 72.2995 86.6213 70.8848 87.8503C69.4851 89.0673 67.9479 90.1169 66.3419 91.0418C65.2505 91.6627 64.0817 92.1718 62.8464 92.4232C61.0449 92.7261 59.1693 92.8712 57.3829 92.3963C56.805 92.2524 56.2442 92.0483 55.7039 91.8002C54.8069 91.3844 53.7821 91.3984 52.8755 91.0095C51.6068 90.4842 50.3854 89.6936 49.6432 88.5098C49.4466 88.223 49.4853 87.8631 49.4917 87.5355C50.1781 87.5183 50.7894 87.8524 51.4436 87.9985C53.6532 88.2896 55.8779 87.8008 57.9619 87.0865C58.7289 86.8104 59.5142 86.5773 60.2532 86.2293C61.4703 85.6717 62.6047 84.9574 63.7605 84.2871C65.6748 83.1774 67.4054 81.7841 69.0855 80.3533C72.1771 77.6731 75.2955 75.0219 78.5225 72.505C81.0845 70.4393 83.7647 68.4423 86.8305 67.1844V67.1844Z" fill="white"/>
<path opacity="0.89" d="M84.5862 96.2603C84.7581 96.0863 84.9299 95.9133 85.104 95.7425C85.2758 95.9144 85.4477 96.0874 85.6196 96.2603C85.4477 96.4322 85.2758 96.6051 85.104 96.7781C84.9299 96.6051 84.7581 96.4333 84.5862 96.2603Z" fill="white"/>
<path opacity="0.89" d="M108.303 96.4999C108.472 96.3269 108.644 96.155 108.816 95.9842C108.989 96.155 109.161 96.328 109.334 96.5009C109.161 96.6739 108.989 96.8458 108.817 97.0187C108.644 96.8458 108.472 96.6728 108.303 96.4999V96.4999Z" fill="white"/>
<path opacity="0.89" d="M16.7858 102.425C15.4151 100.601 15.4065 97.8738 16.8256 96.0755C17.0093 96.2345 17.1919 96.3946 17.3745 96.5546C16.8213 97.4226 16.4356 98.4367 16.5012 99.4808C16.5302 100.364 16.8374 101.225 17.3498 101.942C17.1629 102.103 16.9749 102.265 16.7858 102.425V102.425Z" fill="white"/>
<path opacity="0.89" d="M71.7891 96.56C71.9728 96.3957 72.1575 96.2324 72.3444 96.0712C73.7549 97.8759 73.757 100.599 72.3831 102.424C72.194 102.266 72.005 102.107 71.817 101.949C72.4873 100.992 72.8096 99.7773 72.6184 98.6171C72.5045 97.8781 72.1951 97.1831 71.7891 96.56V96.56Z" fill="white"/>
<path opacity="0.89" d="M20.9279 96.3366C21.1718 96.3355 21.4145 96.3355 21.6584 96.3366C21.6595 97.9941 21.6573 99.6527 21.6605 101.311C21.6605 101.781 21.5681 102.291 21.2201 102.634C20.7657 103.105 20.0632 103.172 19.4444 103.139C18.7333 103.127 18.0597 102.615 17.8685 101.929C17.6376 101.135 17.8911 100.313 18.2166 99.5872C18.4508 99.686 18.6828 99.7891 18.9138 99.8965C18.6914 100.424 18.4304 100.99 18.5571 101.577C18.6259 102.006 19.019 102.354 19.4519 102.378C19.8698 102.398 20.35 102.407 20.6798 102.104C20.9 101.862 20.9139 101.512 20.9279 101.203C20.929 99.5807 20.9258 97.9587 20.9279 96.3366V96.3366Z" fill="white"/>
<path opacity="0.89" d="M22.5704 96.3129C22.8207 96.3119 23.0721 96.3119 23.3224 96.3129C23.3245 97.4795 23.317 98.6461 23.3267 99.8127C23.3364 100.052 23.3471 100.416 23.6554 100.459C24.185 100.543 24.7253 100.495 25.2592 100.501C25.4988 100.517 25.7082 100.399 25.9016 100.274C25.8984 99.8117 25.9005 99.3508 25.9005 98.8911C26.1508 98.89 26.4022 98.89 26.6525 98.8911C26.6611 99.295 26.6331 99.7021 26.6707 100.106C26.6954 100.356 26.949 100.5 27.1821 100.497C27.7578 100.512 28.3347 100.502 28.9105 100.501C29.149 100.52 29.3584 100.399 29.5529 100.278C29.5518 99.8149 29.5529 99.353 29.5529 98.8911C29.8032 98.89 30.0545 98.89 30.3048 98.8911C30.336 99.3422 30.2361 99.817 30.3714 100.254C30.6389 100.646 31.1943 100.458 31.595 100.505C32.8035 100.581 34.0152 100.288 35.0733 99.7064C34.4567 99.4883 33.8487 99.2348 33.2149 99.0694C32.9141 98.9673 32.7422 99.2756 32.594 99.4744C32.3673 99.4078 32.1417 99.3412 31.9161 99.2735C32.0741 98.9211 32.2449 98.5183 32.6305 98.3658C33.0355 98.1595 33.4824 98.3658 33.8766 98.4979C34.5705 98.7611 35.2656 99.0232 35.9617 99.2821C35.9745 99.484 36.0465 99.6924 36.0068 99.8944C35.8478 100.05 35.6609 100.173 35.4933 100.32C36.0712 100.651 36.7598 100.448 37.3904 100.505C37.7706 100.485 38.3819 100.629 38.5033 100.124C38.5548 99.6129 38.3765 99.1124 38.2884 98.6139C38.5247 98.5419 38.7611 98.47 38.9985 98.3991C39.1134 98.9663 39.2713 99.5399 39.2391 100.124C39.2015 100.737 38.6536 101.254 38.0381 101.251C37.3238 101.261 36.6094 101.269 35.8961 101.246C35.4503 101.235 35.0829 100.945 34.8337 100.598C33.9582 101.01 33.0033 101.302 32.0257 101.259C31.3264 101.22 30.5465 101.406 29.9353 100.966C29.2725 101.391 28.4636 101.225 27.7235 101.259C27.2283 101.278 26.7019 101.273 26.284 100.966C25.85 101.238 25.3344 101.282 24.8338 101.26C24.2387 101.235 23.591 101.341 23.0442 101.048C22.6177 100.801 22.5823 100.253 22.5704 99.8138C22.5683 98.6472 22.5726 97.4795 22.5704 96.3129V96.3129Z" fill="white"/>
<path opacity="0.89" d="M48.9964 96.3129C49.2467 96.3119 49.497 96.3119 49.7483 96.3129C49.7505 97.4806 49.743 98.6483 49.7526 99.816C49.7645 100.049 49.7688 100.4 50.0631 100.454C50.5261 100.549 51.0041 100.492 51.4725 100.492C51.2222 100.137 51.0116 99.7236 51.09 99.2756C51.1652 98.5151 52.0579 98.0768 52.7497 98.268C53.3685 98.4109 53.8314 99.0576 53.7498 99.6903C53.723 100.064 53.478 100.364 53.2696 100.657C53.6714 100.712 54.1838 100.814 54.4814 100.454C54.6801 100.25 54.5716 99.9427 54.447 99.7322C54.0667 99.0887 53.5511 98.5419 53.0967 97.9522C53.2943 97.8029 53.4931 97.6546 53.6918 97.5064C54.1204 98.0725 54.5501 98.6386 54.9841 99.2004C55.2838 99.5732 55.3611 100.095 55.2247 100.55C55.0507 101.142 54.4169 101.464 53.8293 101.452C53.3309 101.497 52.8883 101.248 52.4296 101.104C51.523 101.218 50.583 101.382 49.6828 101.147C49.1919 101.015 49.005 100.48 49.0061 100.021C48.9803 98.7858 49.0039 97.5483 48.9964 96.3129M52.1288 98.9652C51.9365 99.0597 51.7668 99.2552 51.7883 99.483C51.7872 99.8665 52.132 100.144 52.4457 100.303C52.8066 100.188 53.1171 99.7794 53.0387 99.3852C52.9409 99.0157 52.4758 98.7675 52.1288 98.9652V98.9652Z" fill="white"/>
<path opacity="0.89" d="M62.3167 96.3129C62.567 96.3119 62.8173 96.3119 63.0686 96.3129C63.0708 97.4785 63.0633 98.644 63.0729 99.8095C63.0923 100.022 63.0729 100.322 63.306 100.43C63.7132 100.543 64.1461 100.513 64.565 100.49C64.7691 100.487 64.9614 100.325 64.9947 100.124C65.0516 99.7139 65.0173 99.2982 65.0226 98.8868C65.2772 98.8889 65.5329 98.8911 65.7886 98.8964C65.7907 99.3014 65.7606 99.7085 65.8014 100.114C65.8777 100.633 66.7747 100.633 66.8724 100.122C66.9369 99.7171 66.8971 99.3046 66.9014 98.8964C67.156 98.8921 67.4117 98.8889 67.6674 98.8868C67.6781 99.3336 67.6276 99.787 67.7028 100.231C67.9166 100.633 68.6513 100.596 68.7555 100.124C68.8243 99.6183 68.6492 99.1188 68.5493 98.629C68.7867 98.5505 69.0252 98.4743 69.2658 98.4023C69.4097 99.1564 69.7599 100.043 69.2787 100.742C68.8372 101.4 67.8672 101.379 67.2774 100.939C66.7242 101.354 65.9508 101.342 65.3954 100.94C65.1193 101.122 64.8078 101.266 64.4694 101.258C63.9108 101.251 63.3028 101.322 62.7926 101.049C62.3618 100.8 62.3274 100.247 62.3167 99.8042C62.3145 98.6408 62.3177 97.4763 62.3167 96.3129V96.3129Z" fill="white"/>
<path opacity="0.89" d="M93.2735 96.3129C93.5271 96.3119 93.7816 96.3119 94.0373 96.3129C94.0491 97.5429 94.0148 98.7761 94.0513 100.005C94.0975 100.505 94.6797 100.555 95.0696 100.501C95.3027 100.502 95.3758 100.244 95.4467 100.068C95.6239 99.5367 95.726 98.919 96.2062 98.5613C96.7411 98.1864 97.5812 98.3056 97.9679 98.8438C98.331 99.339 98.3449 100.005 98.2117 100.583C98.115 100.994 97.7842 101.368 97.3481 101.411C96.8034 101.489 96.3157 101.191 95.8452 100.969C95.2179 101.425 94.2575 101.376 93.6656 100.877C93.0211 101.349 92.194 101.263 91.442 101.248C91.6987 101.637 91.7009 102.177 91.3442 102.508C90.6374 103.221 89.56 103.149 88.6372 103.139C87.8036 103.171 86.9786 102.624 86.7144 101.828C86.391 100.887 86.6746 99.8665 87.0925 99.0028C87.3127 99.1124 87.5329 99.2219 87.7542 99.3304C87.4459 100.038 87.1548 100.862 87.4567 101.623C87.6307 102.1 88.128 102.395 88.6265 102.379C89.2345 102.369 89.8855 102.46 90.4494 102.175C90.6664 102.084 90.7792 101.87 90.8974 101.682C90.4333 101.369 89.8747 101.287 89.3301 101.244C89.3312 100.995 89.3312 100.747 89.3322 100.501C90.3538 100.5 91.3765 100.505 92.3991 100.502C92.6924 100.487 93.0426 100.466 93.2306 100.206C93.2875 100.005 93.2735 99.7923 93.2789 99.5882C93.2703 98.4958 93.2789 97.4043 93.2735 96.3129M96.1417 100.289C96.5252 100.45 96.9119 100.719 97.3491 100.652C97.8497 100.199 97.593 98.9888 96.8034 99.1113C96.3232 99.2746 96.2674 99.8665 96.1417 100.289Z" fill="white"/>
<path opacity="0.89" d="M104.104 96.3129C104.354 96.3119 104.604 96.3119 104.856 96.3129C104.858 97.4785 104.85 98.644 104.86 99.8095C104.878 100.021 104.861 100.314 105.086 100.427C105.459 100.538 105.864 100.527 106.248 100.469C106.433 100.45 106.607 100.309 106.613 100.115C106.648 99.7075 106.622 99.2982 106.625 98.89H107.383C107.392 99.3046 107.34 99.7257 107.419 100.136C107.509 100.603 108.313 100.642 108.439 100.177C108.517 99.7547 108.464 99.3208 108.474 98.8954C108.728 98.8911 108.984 98.8889 109.24 98.8868C109.253 99.3336 109.193 99.7902 109.283 100.232C109.482 100.63 110.238 100.599 110.324 100.125C110.387 99.7161 110.348 99.2993 110.355 98.8868C110.609 98.8889 110.865 98.8911 111.121 98.8964C111.142 99.3444 111.049 99.8138 111.176 100.25C111.414 100.598 111.907 100.477 112.267 100.507C112.641 100.471 113.202 100.638 113.384 100.19C113.476 99.6602 113.277 99.1328 113.186 98.6161C113.424 98.543 113.661 98.47 113.899 98.3959C114.015 98.963 114.167 99.5356 114.139 100.119C114.107 100.745 113.539 101.264 112.913 101.252C112.181 101.239 111.367 101.392 110.726 100.942C110.192 101.373 109.402 101.349 108.86 100.946C108.321 101.354 107.574 101.348 107.026 100.96C106.356 101.356 105.524 101.32 104.792 101.148C104.301 101.017 104.112 100.482 104.113 100.022C104.088 98.7858 104.111 97.5494 104.104 96.3129V96.3129Z" fill="white"/>
<path opacity="0.89" d="M60.3208 96.9972C60.512 96.8071 60.7043 96.617 60.8977 96.43C61.0889 96.6245 61.2812 96.8178 61.4734 97.0133C61.2833 97.2035 61.0932 97.3947 60.9041 97.588C60.7097 97.3893 60.5152 97.1927 60.3208 96.9972Z" fill="white"/>
<path opacity="0.89" d="M113.305 96.43C113.504 96.6212 113.701 96.8146 113.897 97.0101C113.706 97.2013 113.516 97.3936 113.328 97.587C113.133 97.3893 112.938 97.1949 112.745 96.9994C112.93 96.8092 113.118 96.6202 113.305 96.43V96.43Z" fill="white"/>
<path opacity="0.89" d="M85.2566 97.226C85.4392 97.0413 85.6132 96.8479 85.8195 96.69C86.0268 96.8425 86.2041 97.0305 86.3877 97.2121C86.203 97.3958 86.0182 97.5816 85.8334 97.7664C85.6422 97.5838 85.45 97.4033 85.2566 97.226Z" fill="white"/>
<path opacity="0.89" d="M83.8052 97.2422C83.9835 97.0531 84.165 96.8662 84.3487 96.6825C84.5303 96.8619 84.7215 97.0359 84.8837 97.2368C84.7269 97.442 84.5356 97.6192 84.3487 97.7975C84.1672 97.6128 83.9846 97.4269 83.8052 97.2422Z" fill="white"/>
<path opacity="0.89" d="M24.6287 97.3732C24.8113 97.1906 24.9939 97.0101 25.1787 96.8307C25.3634 97.0166 25.5471 97.2056 25.7297 97.3958C25.5428 97.5795 25.3559 97.7642 25.169 97.949C24.9864 97.7588 24.8048 97.5676 24.6287 97.3732Z" fill="white"/>
<path opacity="0.89" d="M26.0049 97.3968C26.1864 97.2099 26.3647 97.0198 26.5431 96.8307C26.73 97.0144 26.9158 97.1992 27.1027 97.3839C26.918 97.573 26.7311 97.7599 26.5441 97.9479C26.3637 97.7642 26.1832 97.5816 26.0049 97.3968Z" fill="white"/>
<path opacity="0.89" d="M108.968 97.4677C109.156 97.2797 109.346 97.095 109.538 96.9113C109.728 97.0896 109.915 97.2701 110.101 97.4538C109.916 97.6375 109.733 97.8222 109.55 98.0081C109.357 97.8265 109.162 97.6461 108.968 97.4677Z" fill="white"/>
<path opacity="0.89" d="M107.54 97.4731C107.698 97.2744 107.885 97.1014 108.063 96.922C108.25 97.1089 108.437 97.298 108.622 97.4881C108.435 97.6718 108.249 97.8555 108.063 98.0403C107.878 97.8598 107.684 97.6869 107.54 97.4731Z" fill="white"/>
<path opacity="0.89" d="M57.154 97.4677C57.3989 97.4097 57.6438 97.3517 57.8909 97.2959C58.08 98.0596 58.2712 98.8234 58.4517 99.5893C58.5258 99.9213 58.6815 100.282 59.0307 100.401C59.4958 100.568 60.005 100.497 60.4905 100.497C60.7526 100.517 60.9911 100.294 60.9922 100.033C60.9943 99.5507 60.8579 99.0834 60.7666 98.6129C61.004 98.542 61.2403 98.47 61.4777 98.3969C61.6056 99.1672 61.9676 100.065 61.4691 100.773C61.0212 101.388 60.1865 101.252 59.5259 101.257C58.9007 101.272 58.2809 100.974 57.9532 100.433C57.4838 100.997 56.5632 101.125 55.9938 100.643C55.4127 100.152 55.4019 99.1929 55.8832 98.629C56.2151 98.195 56.7318 97.9737 57.2238 97.775C57.2066 97.6976 57.1712 97.5451 57.154 97.4677M56.3827 99.1425C56.2022 99.3734 56.1464 99.7408 56.3569 99.9728C56.7211 100.375 57.5042 100.132 57.5891 99.6001C57.631 99.2273 57.4956 98.8674 57.4161 98.5108C57.0412 98.6591 56.6309 98.8041 56.3827 99.1425Z" fill="white"/>
<path opacity="0.89" d="M40.8118 97.9544C41.0213 97.8126 41.2308 97.6718 41.4413 97.5311C41.8538 98.1746 42.291 98.8008 42.7067 99.4421C42.9087 99.7612 43.0881 100.152 42.9603 100.536C42.8561 100.913 42.4833 101.128 42.1234 101.207C41.3038 101.388 40.3982 101.297 39.6914 100.818C39.8171 100.604 39.9428 100.392 40.0674 100.179C40.7248 100.596 41.5745 100.639 42.2899 100.351C41.9322 99.4776 41.2823 98.7665 40.8118 97.9544V97.9544Z" fill="white"/>
<path opacity="0.89" d="M75.6982 98.0016C75.8465 97.8072 76.027 97.6428 76.1999 97.472C76.3857 97.6589 76.5716 97.848 76.7553 98.0403C76.5684 98.2229 76.3825 98.4077 76.1967 98.5914C76.0345 98.3969 75.7691 98.2455 75.6982 98.0016V98.0016Z" fill="white"/>
<path opacity="0.89" d="M77.0291 98.0543C77.2084 97.8609 77.3868 97.6665 77.5672 97.4742C77.7541 97.6579 77.94 97.8426 78.128 98.0274C77.9432 98.2154 77.7584 98.4034 77.5726 98.5903C77.39 98.4109 77.2095 98.2315 77.0291 98.0543V98.0543Z" fill="white"/>
<path opacity="0.89" d="M100.636 98.6107C100.824 98.4184 101.012 98.2283 101.203 98.0381C101.398 98.2326 101.593 98.427 101.788 98.6236C101.597 98.8148 101.404 99.006 101.213 99.1972C101.022 98.9996 100.829 98.8041 100.636 98.6107Z" fill="white"/>
<path opacity="0.89" d="M46.0818 98.7106C46.6501 98.2025 47.459 98.181 48.1733 98.3035C48.11 98.5484 48.0455 98.7922 47.9821 99.0382C47.5009 98.9362 46.938 98.9426 46.5609 99.3036C46.2773 99.5388 46.2097 99.917 46.1914 100.266C46.6684 100.394 47.156 100.484 47.6233 100.642C47.8962 100.731 48.0423 101.022 48.0337 101.297C48.0434 101.86 47.9037 102.522 47.387 102.838C46.779 103.224 46.0281 103.127 45.3449 103.139C44.478 103.173 43.6283 102.578 43.3931 101.738C43.1105 100.809 43.4178 99.8321 43.8195 98.9878C44.043 99.0887 44.2675 99.1919 44.4898 99.2971C44.1848 100.019 43.8507 100.849 44.1665 101.626C44.3416 102.101 44.8379 102.395 45.3352 102.379C45.882 102.364 46.4814 102.467 46.9767 102.181C47.2538 102.019 47.2742 101.674 47.3483 101.398C46.7683 101.231 46.185 101.074 45.5984 100.928C45.3288 100.176 45.4351 99.2391 46.0818 98.7106V98.7106Z" fill="white"/>
<path opacity="0.89" d="M85.2329 98.6118C85.4681 98.5409 85.7055 98.47 85.9418 98.3991C86.06 99.0544 86.2974 99.7343 86.1277 100.401C85.9601 100.982 85.3446 101.31 84.7634 101.259C83.9728 101.205 83.1005 101.429 82.3916 100.975C81.8168 101.322 81.1261 101.27 80.4827 101.252C80.1647 101.246 79.879 101.101 79.6018 100.964C79.3075 101.133 78.982 101.258 78.6382 101.254C77.5286 101.265 76.4189 101.249 75.3082 101.26C74.9537 101.259 74.5712 101.28 74.2554 101.09C73.8751 100.877 73.6463 100.453 73.6249 100.025C73.6023 99.5506 73.7505 99.0909 73.8698 98.6365C74.1082 98.7128 74.3478 98.789 74.5884 98.8642C74.4939 99.2756 74.3295 99.6935 74.4004 100.122C74.4552 100.384 74.7367 100.517 74.988 100.502C76.1718 100.503 77.3556 100.502 78.5394 100.502C78.7886 100.496 79.1571 100.454 79.2097 100.152C79.2677 99.7343 79.2237 99.31 79.2323 98.89H79.9907C79.9982 99.3208 79.9563 99.7547 80.0111 100.183C80.1582 100.58 80.6653 100.487 81.0015 100.51C81.3367 100.482 81.8663 100.585 82.0016 100.176C82.0596 99.7504 82.0177 99.3186 82.0252 98.89H82.7836C82.7901 99.3186 82.7514 99.7515 82.803 100.179C82.8567 100.427 83.1467 100.5 83.368 100.5C83.9234 100.5 84.4809 100.521 85.0352 100.49C85.3209 100.479 85.4939 100.177 85.4617 99.9148C85.4316 99.4733 85.3188 99.0436 85.2329 98.6118V98.6118Z" fill="white"/>
<path opacity="0.89" d="M70.7718 98.8921C71.0146 98.89 71.2584 98.89 71.5033 98.89C71.4969 99.6613 71.5119 100.434 71.5001 101.206C71.4829 101.898 71.0908 102.596 70.4484 102.888C69.9919 103.116 69.4698 103.087 68.9746 103.085C68.9746 102.831 68.9757 102.579 68.9778 102.326C69.4505 102.321 69.994 102.398 70.3894 102.078C70.7191 101.824 70.7492 101.374 70.7675 100.991C70.7814 100.291 70.7664 99.5915 70.7718 98.8921V98.8921Z" fill="white"/>
<path opacity="0.89" d="M102.569 98.8911C102.822 98.89 103.077 98.89 103.332 98.89C103.325 99.6978 103.338 100.507 103.329 101.315C103.322 101.861 103.142 102.459 102.659 102.77C102.072 103.17 101.33 103.077 100.659 103.085C99.8454 103.114 99.043 102.583 98.7809 101.808C98.4242 100.888 98.7282 99.8826 99.1354 99.0339C99.362 99.1381 99.5898 99.2456 99.8164 99.3541C99.5371 99.9674 99.2664 100.642 99.4168 101.327C99.506 101.839 99.9442 102.268 100.464 102.325C100.958 102.372 101.469 102.379 101.956 102.268C102.341 102.18 102.563 101.789 102.562 101.414C102.581 100.573 102.56 99.7322 102.569 98.8911V98.8911Z" fill="white"/>
<path opacity="0.89" d="M33.1753 102.418C33.3644 102.23 33.5523 102.042 33.7425 101.854C33.9358 102.045 34.1292 102.237 34.3236 102.43C34.1324 102.628 33.9401 102.825 33.7457 103.02C33.5588 102.816 33.3665 102.616 33.1753 102.418Z" fill="white"/>
<path opacity="0.89" d="M37.2486 101.932C37.4409 102.116 37.6299 102.302 37.819 102.489L37.2647 103.046C37.0917 102.859 36.9167 102.676 36.7405 102.494C36.9113 102.308 37.081 102.121 37.2486 101.932Z" fill="white"/>
<path opacity="0.89" d="M81.5151 102.476C81.7031 102.285 81.8922 102.094 82.0813 101.905C82.2768 102.1 82.4723 102.295 82.6667 102.492C82.4733 102.684 82.2811 102.876 82.0877 103.069C81.8986 102.868 81.7074 102.671 81.5151 102.476V102.476Z" fill="white"/>
<path opacity="0.89" d="M28.0898 102.517C28.2628 102.333 28.4357 102.147 28.6076 101.962C28.7956 102.146 28.9825 102.331 29.1705 102.517C28.9847 102.702 28.7988 102.888 28.6119 103.073C28.4411 102.884 28.266 102.699 28.0898 102.517Z" fill="white"/>
<path opacity="0.89" d="M29.3833 102.527C29.5563 102.34 29.7303 102.157 29.9075 101.974C30.0955 102.157 30.2824 102.34 30.4715 102.523C30.2942 102.708 30.1159 102.89 29.9376 103.074C29.7507 102.894 29.5659 102.711 29.3833 102.527Z" fill="white"/>
<path opacity="0.89" d="M38.0327 102.504C38.2067 102.315 38.3829 102.129 38.5612 101.945C38.7471 102.13 38.9329 102.317 39.1198 102.504C38.9383 102.683 38.7578 102.865 38.5763 103.045C38.3947 102.865 38.2132 102.683 38.0327 102.504Z" fill="white"/>
</svg>
