<svg width="14" height="14" viewBox="0 0 14 14" fill="none" xmlns="http://www.w3.org/2000/svg">
<g clip-path="url(#clip0_1_346)">
<path d="M10.2125 8.34632L10.2072 8.39007C8.9245 7.75073 8.79033 7.66557 8.62466 7.91407C8.50975 8.08615 8.17491 8.4764 8.074 8.5919C7.97191 8.70565 7.87041 8.7144 7.69716 8.63565C7.52216 8.54815 6.96041 8.3644 6.29541 7.7694C5.77741 7.30565 5.42975 6.7369 5.32708 6.5619C5.15616 6.26673 5.51375 6.22473 5.83925 5.60873C5.89758 5.48623 5.86783 5.38998 5.82466 5.30307C5.78091 5.21557 5.43266 4.35807 5.28683 4.01623C5.14683 3.67557 5.00275 3.71873 4.89483 3.71873C4.55883 3.68957 4.31325 3.69423 4.09683 3.9194C3.15533 4.95423 3.39275 6.02173 4.19833 7.1569C5.7815 9.2289 6.625 9.6104 8.16733 10.1401C8.58383 10.2725 8.96358 10.2538 9.264 10.2107C9.59883 10.1576 10.2947 9.79007 10.44 9.37882C10.5887 8.96757 10.5887 8.62632 10.545 8.54757C10.5018 8.46882 10.3875 8.42507 10.2125 8.34632Z" fill="white"/>
<path d="M11.97 2.01235C7.48475 -2.32356 0.0618333 0.821185 0.0589167 6.93802C0.0589167 8.16069 0.379167 9.35302 0.989333 10.4059L0 14.0004L3.69542 13.0368C8.30667 15.5276 13.9977 12.2201 14 6.94152C14 5.08885 13.2767 3.34527 11.9612 2.0351L11.97 2.01235ZM12.8345 6.92227C12.831 11.3749 7.94325 14.1556 4.0775 11.8829L3.8675 11.7581L1.68 12.3269L2.26625 10.2006L2.12683 9.98185C-0.278833 6.15227 2.485 1.14727 7.042 1.14727C8.59017 1.14727 10.0433 1.75102 11.1376 2.84477C12.2313 3.92919 12.8345 5.38227 12.8345 6.92227Z" fill="white"/>
</g>
<defs>
<clipPath id="clip0_1_346">
<rect width="14" height="14" fill="white" transform="translate(0 0.000549316)"/>
</clipPath>
</defs>
</svg>
