<svg width="20" height="20" viewBox="0 0 20 20" fill="none" xmlns="http://www.w3.org/2000/svg">
<path d="M10 19.0084C9.42502 19.0084 8.88335 18.7167 8.50002 18.2084L7.25002 16.5417C7.22502 16.5084 7.12502 16.4667 7.08335 16.4584H6.66669C3.19169 16.4584 1.04169 15.5167 1.04169 10.8334V6.66675C1.04169 2.98341 2.98335 1.04175 6.66669 1.04175H13.3334C17.0167 1.04175 18.9584 2.98341 18.9584 6.66675V10.8334C18.9584 14.5167 17.0167 16.4584 13.3334 16.4584H12.9167C12.85 16.4584 12.7917 16.4917 12.75 16.5417L11.5 18.2084C11.1167 18.7167 10.575 19.0084 10 19.0084ZM6.66669 2.29175C3.68335 2.29175 2.29169 3.68341 2.29169 6.66675V10.8334C2.29169 14.6001 3.58335 15.2084 6.66669 15.2084H7.08335C7.50835 15.2084 7.99169 15.4501 8.25002 15.7917L9.50002 17.4584C9.79169 17.8417 10.2084 17.8417 10.5 17.4584L11.75 15.7917C12.025 15.4251 12.4584 15.2084 12.9167 15.2084H13.3334C16.3167 15.2084 17.7084 13.8167 17.7084 10.8334V6.66675C17.7084 3.68341 16.3167 2.29175 13.3334 2.29175H6.66669Z" fill="#FFCB05"/>
<path d="M14.1666 7.29175H5.83331C5.49165 7.29175 5.20831 7.00841 5.20831 6.66675C5.20831 6.32508 5.49165 6.04175 5.83331 6.04175H14.1666C14.5083 6.04175 14.7916 6.32508 14.7916 6.66675C14.7916 7.00841 14.5083 7.29175 14.1666 7.29175Z" fill="#FFCB05"/>
<path d="M10.8333 11.4583H5.83331C5.49165 11.4583 5.20831 11.1749 5.20831 10.8333C5.20831 10.4916 5.49165 10.2083 5.83331 10.2083H10.8333C11.175 10.2083 11.4583 10.4916 11.4583 10.8333C11.4583 11.1749 11.175 11.4583 10.8333 11.4583Z" fill="#FFCB05"/>
</svg>
